<svg xmlns="http://www.w3.org/2000/svg" version="1.1" xmlns:xlink="http://www.w3.org/1999/xlink" xmlns:svgjs="http://svgjs.dev/svgjs" width="1000" height="803" viewBox="0 0 1000 803"><g transform="matrix(1,0,0,1,0,0)"><svg viewBox="0 0 448 360" data-background-color="#ffffff" preserveAspectRatio="xMidYMid meet" height="803" width="1000" xmlns="http://www.w3.org/2000/svg" xmlns:xlink="http://www.w3.org/1999/xlink"><g id="tight-bounds" transform="matrix(1,0,0,1,0,0)"><svg viewBox="0 0 448 360" height="360" width="448"><g><svg></svg></g><g><svg viewBox="0 0 448 360" height="360" width="448"><g><path xmlns="http://www.w3.org/2000/svg" d="M193.855 44.683c1.378 0 2.494 1.116 2.495 2.494 0 1.378-1.116 2.494-2.495 2.495h-23.846l-17.167 17.167c-0.973 0.973-2.551 0.973-3.53 0-0.973-0.973-0.973-2.551 0-3.529l13.644-13.645h-40.378c-11.518 0-19.151 2.688-23.815 8.113-4.739 5.519-6.66 14.056-6.66 25.63 0 0.069 0 0.137-0.006 0.206l0.212 36.692 14.692-14.692c0.973-0.973 2.551-0.973 3.53 0 0.973 0.973 0.973 2.551 0 3.53l-18.178 18.178c0.206 35.832 0.193 71.358-0.013 107.19 25.486 25.2 50.617 50.312 75.811 75.791h25.38c1.378 0 2.494 1.116 2.495 2.495 0 1.378-1.116 2.494-2.495 2.494h-20.448l25.942 26.241 0.006-0.006c8.188 8.188 15.577 12.859 22.824 13.413 7.146 0.543 14.442-2.956 22.586-11.093l28.555-28.555h-20.722c-1.378 0-2.494-1.116-2.495-2.494 0-1.378 1.116-2.494 2.495-2.495h25.711l16.625-16.625c0.973-0.973 2.551-0.973 3.529 0 0.973 0.973 0.973 2.551 0 3.53l-13.101 13.102h40.377c11.518 0 19.151-2.688 23.815-8.113 4.739-5.519 6.66-14.056 6.66-25.63h0.013l-0.212-36.898-16.014 16.014c-0.973 0.973-2.551 0.973-3.53 0-0.973-0.973-0.973-2.551 0-3.53l19.5-19.5c-0.206-35.832-0.193-71.358 0.013-107.19-25.486-25.2-50.617-50.312-75.811-75.791h-26.147c-1.378 0-2.494-1.116-2.495-2.495 0-1.378 1.116-2.494 2.495-2.494h21.215l-25.824-26.123c-0.044-0.037-0.081-0.075-0.124-0.112-8.188-8.188-15.577-12.859-22.824-13.413-7.146-0.543-14.442 2.956-22.586 11.093l-28.555 28.555h18.858zM122.578 44.683h45.367l32.078-32.078c9.248-9.248 17.81-13.195 26.484-12.534 8.568 0.649 16.956 5.824 25.985 14.854 0.05 0.05 0.094 0.094 0.137 0.143l29.278 29.615h43.508c13.071 0 21.919 3.268 27.594 9.871 5.6 6.517 7.864 16.101 7.864 28.867 0 0.081-0.006 0.156-0.012 0.23l-0.225 39.742 28.43 28.112 0.006-0.006c9.03 9.03 14.206 17.411 14.854 25.985 0.661 8.674-3.293 17.236-12.534 26.484l-30.768 30.768 0.237 41.843h0.012c0 12.765-2.27 22.35-7.864 28.867-5.675 6.604-14.524 9.872-27.594 9.871h-45.366l-32.078 32.078c-9.248 9.248-17.81 13.195-26.484 12.534-8.568-0.649-16.956-5.824-25.985-14.854l0.006-0.006-29.421-29.758h-43.509c-13.071 0-21.919-3.268-27.594-9.872-5.6-6.517-7.864-16.101-7.863-28.866h0.012l0.231-39.972-28.293-27.969c-0.05-0.044-0.1-0.087-0.143-0.137-9.03-9.03-14.206-17.411-14.854-25.985-0.661-8.674 3.293-17.236 12.534-26.484l30.768-30.768-0.237-41.607c-0.006-0.075-0.012-0.156-0.012-0.23 0-12.765 2.27-22.35 7.864-28.867 5.675-6.604 14.524-9.872 27.594-9.871zM87.682 179.997l-0.274-47.724-27.276 27.276c-8.138 8.138-11.636 15.44-11.094 22.587 0.549 7.246 5.226 14.642 13.413 22.823 0.037 0.037 0.081 0.081 0.113 0.125l24.837 24.551 0.281-49.644zM92.303 241.483l-0.2 35.09h0.013c0 11.58 1.921 20.117 6.66 25.63 4.664 5.432 12.297 8.113 23.815 8.113h38.576l-33.55-33.936-35.308-34.903zM325.415 49.672h-38.575l33.549 33.936 35.308 34.902 0.2-34.884c-0.006-0.069-0.006-0.137-0.007-0.205 0-11.58-1.921-20.117-6.66-25.63-4.664-5.432-12.297-8.113-23.815-8.113zM360.599 130.352l-0.281 49.645 0.274 47.724 27.276-27.276c8.138-8.138 11.636-15.44 11.094-22.587-0.549-7.252-5.226-14.642-13.413-22.824l0.006-0.006-24.956-24.669z" fill="#ff0000" fill-rule="nonzero" stroke="none" stroke-width="1" stroke-linecap="butt" stroke-linejoin="miter" stroke-miterlimit="10" stroke-dasharray="" stroke-dashoffset="0" font-family="none" font-weight="none" font-size="none" text-anchor="none" style="mix-blend-mode: normal" data-fill-palette-color="tertiary"></path></g><g transform="matrix(1,0,0,1,134,90)"><svg viewBox="0 0 180 180" height="180" width="180"><g><svg viewBox="0 0 180 180" height="180" width="180"><g><svg viewBox="0 0 180 180" height="180" width="180"><g id="textblocktransform"><svg viewBox="0 0 180 180" height="180" width="180" id="textblock"><g><svg viewBox="0 0 180 180" height="180" width="180"><g transform="matrix(1,0,0,1,36.966991411008934,36.966991411008934)"><svg viewBox="0 0 106.06601717798213 106.06601717798213" height="106.06601717798213" width="106.06601717798213"><g><circle r="53" cx="53.033008588991066" cy="53.033008588991066" fill="#ed2647" data-fill-palette-color="accent"></circle><svg xmlns="http://www.w3.org/2000/svg" xmlns:xlink="http://www.w3.org/1999/xlink" version="1.1" x="15.90990257669732" y="15.90990257669732" viewBox="26.599998474121094 27.326492309570312 40.20000457763672 45.373512268066406" style="enable-background:new 0 0 100 100;" xml:space="preserve" height="74.24621202458749" width="74.24621202458749" class="icon-o-0" data-fill-palette-color="quaternary" id="o-0"><path d="M66.8 35.5v-4.7c0-1-0.5-2-1.3-2.7-0.8-0.7-1.9-0.9-2.9-0.7l-22.5 4.2c-1.7 0.3-2.9 1.8-2.9 3.4v5.4c0 0 0 0 0 0v19.9c-1.1-0.7-2.4-1.2-3.8-1.2-3.7 0-6.8 3-6.8 6.8s3 6.8 6.8 6.8 6.8-3 6.8-6.8V41.7l23.5-4.4V55c-1.1-0.7-2.4-1.2-3.8-1.2-3.7 0-6.8 3-6.8 6.8s3 6.8 6.8 6.8c3.5 0 6.4-2.7 6.8-6.1 0-0.1 0-0.2 0-0.3V35.5C66.8 35.5 66.8 35.5 66.8 35.5zM33.5 69.7c-2.1 0-3.8-1.7-3.8-3.8s1.7-3.8 3.8-3.8 3.8 1.7 3.8 3.8S35.6 69.7 33.5 69.7zM40.3 38.7V35c0-0.2 0.2-0.4 0.4-0.5l22.5-4.2c0.2 0 0.3 0.1 0.4 0.1 0.1 0.1 0.2 0.2 0.2 0.4v3.5L40.3 38.7zM60 64.4c-2.1 0-3.8-1.7-3.8-3.8s1.7-3.8 3.8-3.8 3.8 1.7 3.8 3.8S62.1 64.4 60 64.4z" fill="#ffffff" data-fill-palette-color="quaternary"></path></svg></g></svg></g><g><path d="M21.876 67.527v0c-0.218 0.627-0.509 1.01-0.874 1.15-0.358 0.142-0.754 0.138-1.186-0.013v0c-0.407-0.142-0.86-0.394-1.359-0.757-0.501-0.357-0.98-0.716-1.437-1.079v0c-0.6-0.476-1.302-1.043-2.105-1.701-0.812-0.655-1.651-1.35-2.518-2.087-0.876-0.733-1.733-1.47-2.571-2.211-0.84-0.735-1.593-1.428-2.258-2.081v0c-0.321 0.963-0.582 1.775-0.783 2.435-0.195 0.662-0.357 1.259-0.486 1.79-0.137 0.535-0.256 1.13-0.357 1.783v0c-0.461-0.209-0.746-0.582-0.854-1.119-0.108-0.536-0.087-1.203 0.064-2 0.149-0.791 0.391-1.669 0.726-2.634v0c0.336-0.965 0.674-1.816 1.015-2.555 0.345-0.73 0.669-1.418 0.971-2.064 0.302-0.646 0.576-1.303 0.821-1.968v0c0.269 0.62 0.352 1.26 0.249 1.919-0.101 0.653-0.27 1.321-0.507 2.004v0c-0.054 0.157-0.113 0.315-0.176 0.476-0.065 0.167-0.127 0.335-0.186 0.505-0.059 0.169-0.117 0.335-0.173 0.498v0c0.958 0.839 2.189 1.843 3.693 3.012 1.502 1.175 3.221 2.43 5.159 3.764v0c0.672 0.451 1.275 0.858 1.809 1.219 0.526 0.366 1.017 0.68 1.473 0.944 0.458 0.258 0.919 0.467 1.383 0.628v0c0.069 0.024 0.147 0.051 0.235 0.082 0.081 0.028 0.159 0.048 0.232 0.06z" fill="#ff0000" data-fill-palette-color="primary"></path><path d="M31.768 45.049v0c-0.318 0.391-0.746 0.561-1.284 0.508-0.542-0.047-1.043-0.257-1.501-0.629v0c-0.335-0.272-0.677-0.639-1.027-1.103-0.35-0.464-0.669-0.949-0.957-1.457-0.298-0.507-0.514-0.956-0.649-1.348-0.136-0.401-0.154-0.663-0.054-0.786v0c0.046-0.057 0.159-0.127 0.339-0.212 0.175-0.089 0.351-0.138 0.529-0.147v0c0.091 0.288 0.264 0.685 0.52 1.191 0.251 0.512 0.549 1.023 0.895 1.534 0.345 0.511 0.714 0.926 1.105 1.243v0c0.093 0.075 0.245 0.177 0.456 0.307 0.207 0.134 0.423 0.215 0.648 0.244 0.225 0.029 0.412-0.05 0.563-0.235v0c0.176-0.216 0.244-0.532 0.206-0.948-0.037-0.406-0.138-0.872-0.301-1.398-0.168-0.53-0.37-1.07-0.607-1.621-0.236-0.551-0.468-1.076-0.694-1.576-0.221-0.496-0.406-0.91-0.553-1.244v0c0.065-0.059 0.167-0.142 0.306-0.251 0.141-0.099 0.283-0.18 0.428-0.242 0.149-0.067 0.277-0.057 0.385 0.031v0c0.041 0.033 0.145 0.216 0.311 0.547 0.165 0.322 0.371 0.711 0.616 1.167 0.25 0.46 0.518 0.899 0.802 1.317 0.285 0.428 0.572 0.759 0.86 0.993v0c0.206 0.167 0.406 0.257 0.601 0.271 0.2 0.017 0.383-0.077 0.551-0.284v0c0.197-0.242 0.327-0.623 0.39-1.144 0.059-0.525 0.024-1.134-0.105-1.828-0.134-0.698-0.381-1.42-0.741-2.166v0l0.337-0.098c0.421 0.744 0.715 1.503 0.88 2.278 0.156 0.776 0.19 1.492 0.102 2.147-0.093 0.651-0.306 1.182-0.641 1.594v0c-0.243 0.299-0.494 0.492-0.753 0.581-0.261 0.079-0.52 0.078-0.778-0.004-0.254-0.087-0.495-0.222-0.722-0.407v0c-0.139-0.113-0.272-0.238-0.399-0.375-0.123-0.143-0.247-0.29-0.372-0.443v0c0.214 0.515 0.387 1.028 0.521 1.538 0.132 0.5 0.187 0.964 0.165 1.39-0.018 0.422-0.143 0.776-0.378 1.065z" fill="#ff0000" data-fill-palette-color="primary"></path><path d="M56.609 23.332v0c-0.451 0.253-0.856 0.325-1.215 0.215-0.356-0.105-0.634-0.336-0.835-0.695v0c-0.153-0.272-0.263-0.583-0.33-0.933-0.071-0.356-0.15-0.714-0.239-1.075-0.086-0.37-0.212-0.703-0.378-0.998v0c-0.205-0.364-0.42-0.571-0.645-0.619-0.219-0.052-0.439-0.016-0.659 0.108v0c-0.399 0.224-0.716 0.615-0.95 1.173-0.225 0.56-0.389 1.204-0.49 1.93-0.102 0.727-0.167 1.456-0.197 2.188-0.03 0.732-0.056 1.382-0.08 1.951v0c-0.202 0.114-0.419 0.19-0.648 0.227-0.224 0.035-0.429 0.009-0.614-0.077v0c-0.036-0.064-0.078-0.302-0.128-0.716-0.055-0.41-0.132-0.911-0.229-1.503-0.088-0.59-0.207-1.181-0.357-1.774-0.148-0.602-0.34-1.114-0.578-1.536v0c0.023-0.135 0.093-0.296 0.208-0.482 0.119-0.181 0.268-0.322 0.448-0.423v0c0.347-0.195 0.615-0.125 0.803 0.211v0c0.117 0.208 0.252 0.585 0.406 1.13 0.157 0.551 0.294 1.14 0.411 1.766v0c0.051-0.721 0.146-1.467 0.284-2.236 0.141-0.764 0.357-1.456 0.648-2.076 0.297-0.623 0.691-1.073 1.182-1.349v0c0.503-0.283 0.968-0.308 1.395-0.077 0.43 0.238 0.767 0.573 1.011 1.007v0c0.227 0.405 0.373 0.814 0.438 1.226 0.059 0.416 0.109 0.817 0.152 1.205 0.046 0.393 0.16 0.751 0.342 1.075v0c0.153 0.272 0.315 0.432 0.486 0.48 0.172 0.048 0.341 0.025 0.509-0.069v0c0.318-0.179 0.553-0.512 0.705-1.001 0.155-0.483 0.251-1.043 0.288-1.68 0.047-0.635 0.052-1.254 0.017-1.859v0l0.35 0.135c0.082 0.783 0.094 1.515 0.035 2.194-0.062 0.674-0.212 1.268-0.449 1.782-0.24 0.508-0.605 0.899-1.097 1.175z" fill="#ff0000" data-fill-palette-color="primary"></path><path d="M78.972 15.886v0c-0.891 0.141-1.598 0.002-2.122-0.418-0.522-0.414-0.841-0.981-0.955-1.703v0c-0.104-0.655-0.05-1.372 0.162-2.151 0.211-0.786 0.541-1.543 0.99-2.273 0.442-0.728 0.961-1.348 1.558-1.859 0.592-0.504 1.209-0.806 1.851-0.908v0c0.341-0.054 0.666-0.015 0.975 0.117 0.316 0.131 0.517 0.465 0.603 1.002v0c0.088 0.557 0.005 1.107-0.252 1.652-0.251 0.537-0.611 1.037-1.081 1.502-0.477 0.465-1.014 0.87-1.611 1.212-0.597 0.343-1.205 0.594-1.825 0.754v0c-0.003 0.148-0.001 0.289 0.007 0.422 0.008 0.133 0.021 0.259 0.039 0.376v0c0.035 0.223 0.093 0.439 0.174 0.648 0.087 0.208 0.21 0.393 0.37 0.555 0.16 0.163 0.363 0.278 0.609 0.347 0.238 0.063 0.528 0.067 0.869 0.013v0c0.629-0.1 1.22-0.375 1.773-0.825 0.559-0.458 1.054-1.02 1.485-1.687 0.438-0.667 0.782-1.38 1.031-2.138v0l0.296 0.154c-0.254 0.94-0.634 1.78-1.141 2.519-0.501 0.738-1.077 1.34-1.729 1.806-0.657 0.474-1.349 0.768-2.076 0.883zM77.316 12.371v0c0.372-0.193 0.787-0.457 1.244-0.792 0.451-0.334 0.881-0.711 1.292-1.132 0.402-0.427 0.721-0.873 0.955-1.34 0.227-0.473 0.303-0.945 0.229-1.417v0c-0.025-0.157-0.07-0.274-0.136-0.351-0.074-0.082-0.205-0.108-0.396-0.078v0c-0.354 0.056-0.706 0.25-1.056 0.581-0.349 0.338-0.673 0.755-0.97 1.252-0.297 0.497-0.548 1.031-0.753 1.6-0.212 0.571-0.348 1.13-0.409 1.677z" fill="#ff0000" data-fill-palette-color="primary"></path><path d="M100.638 20.228v0c-0.143-0.028-0.3-0.109-0.47-0.243-0.171-0.128-0.298-0.345-0.379-0.652-0.09-0.301-0.082-0.722 0.023-1.263v0c0.125-0.638 0.397-1.446 0.818-2.425 0.414-0.98 0.931-2.052 1.551-3.215 0.619-1.163 1.303-2.344 2.05-3.544 0.749-1.205 1.528-2.358 2.338-3.456 0.809-1.099 1.611-2.074 2.406-2.927 0.787-0.847 1.526-1.496 2.216-1.95 0.697-0.452 1.305-0.627 1.826-0.525v0c0.306 0.06 0.486 0.193 0.54 0.4 0.061 0.208 0.066 0.442 0.015 0.702v0c-0.122 0.625-0.428 1.275-0.918 1.95-0.483 0.676-1.081 1.33-1.792 1.961-0.713 0.638-1.477 1.229-2.293 1.773-0.816 0.544-1.618 0.985-2.407 1.324v0c-0.106 0.162-0.209 0.327-0.31 0.497-0.101 0.17-0.205 0.342-0.314 0.517v0c0.151 0.057 0.262 0.166 0.331 0.328 0.064 0.155 0.091 0.312 0.08 0.472v0c-0.031 0.677-0.038 1.284-0.021 1.82 0.017 0.537 0.117 0.976 0.301 1.316 0.185 0.333 0.502 0.544 0.951 0.632v0c0.508 0.099 0.97-0.003 1.388-0.307 0.424-0.302 0.904-0.753 1.44-1.351v0l0.29 0.28c-0.535 0.801-1.12 1.342-1.757 1.624-0.636 0.281-1.163 0.381-1.579 0.299v0c-0.267-0.052-0.528-0.171-0.782-0.355-0.261-0.186-0.494-0.411-0.7-0.674v0c-0.178 0.911-0.452 1.797-0.823 2.658-0.372 0.867-0.789 1.637-1.252 2.31-0.464 0.68-0.935 1.206-1.413 1.579-0.48 0.379-0.931 0.528-1.354 0.445zM101.41 19.284v0c0.163 0.032 0.373-0.076 0.631-0.323 0.259-0.254 0.532-0.596 0.819-1.026 0.288-0.437 0.569-0.923 0.842-1.457 0.267-0.536 0.508-1.077 0.722-1.623 0.215-0.546 0.366-1.044 0.454-1.493v0c0.088-0.449 0.109-0.871 0.064-1.265-0.045-0.394-0.148-0.87-0.309-1.429v0c-0.577 1.016-1.112 2.007-1.604 2.971-0.485 0.96-0.888 1.831-1.209 2.613-0.315 0.783-0.52 1.419-0.616 1.907v0c-0.136 0.697-0.067 1.072 0.206 1.125zM106.687 7.318v0c1.114-0.688 2.102-1.404 2.964-2.148 0.862-0.744 1.549-1.424 2.061-2.041 0.512-0.616 0.796-1.068 0.852-1.354v0c0.041-0.208-0.04-0.332-0.241-0.372v0c-0.378-0.074-0.868 0.152-1.471 0.676-0.603 0.524-1.263 1.244-1.982 2.158-0.719 0.914-1.447 1.941-2.183 3.081z" fill="#ff0000" data-fill-palette-color="primary"></path><path d="M127.68 22.987v0c-0.556-0.311-0.845-0.724-0.869-1.239-0.024-0.515 0.123-1.056 0.441-1.623v0c0.346-0.619 0.874-1.29 1.581-2.012 0.708-0.721 1.516-1.447 2.426-2.177 0.91-0.73 1.842-1.417 2.795-2.062 0.953-0.645 1.862-1.208 2.725-1.691 0.863-0.483 1.608-0.837 2.236-1.063 0.622-0.23 1.044-0.283 1.264-0.16v0c0.145 0.081 0.218 0.228 0.22 0.442-0.004 0.211-0.043 0.443-0.117 0.699-0.074 0.255-0.161 0.472-0.262 0.651v0c-0.194 0.347-0.535 0.753-1.023 1.218-0.488 0.464-1.085 0.955-1.792 1.471-0.704 0.511-1.467 1-2.291 1.467-0.826 0.458-1.675 0.868-2.547 1.231-0.869 0.358-1.718 0.612-2.548 0.764v0c-0.275 0.302-0.528 0.605-0.76 0.909-0.222 0.302-0.417 0.603-0.585 0.904v0c-0.282 0.504-0.421 0.916-0.418 1.237 0.005 0.33 0.15 0.574 0.434 0.733v0c0.347 0.194 0.779 0.231 1.295 0.109 0.516-0.122 1.059-0.331 1.629-0.628 0.563-0.301 1.096-0.641 1.597-1.022v0l0.199 0.316c-1.127 0.806-2.175 1.36-3.141 1.663-0.958 0.3-1.788 0.254-2.489-0.137zM130.462 18.34v0c0.704-0.199 1.433-0.476 2.185-0.829 0.755-0.345 1.497-0.732 2.223-1.162 0.718-0.427 1.385-0.859 2.003-1.297 0.614-0.432 1.132-0.841 1.553-1.229 0.419-0.382 0.701-0.703 0.847-0.963v0c0.071-0.127 0.101-0.221 0.089-0.281-0.01-0.051-0.029-0.084-0.058-0.101v0c-0.104-0.058-0.373 0.008-0.807 0.199-0.436 0.182-0.977 0.457-1.624 0.824-0.647 0.368-1.343 0.811-2.088 1.329-0.746 0.518-1.493 1.073-2.242 1.665-0.747 0.601-1.44 1.216-2.081 1.845z" fill="#ff0000" data-fill-palette-color="primary"></path><path d="M146.248 36.793v0c-0.429-0.47-0.589-0.935-0.478-1.395 0.11-0.46 0.373-0.88 0.789-1.26v0c0.338-0.309 0.735-0.572 1.191-0.791 0.461-0.223 0.933-0.389 1.418-0.499 0.479-0.105 0.919-0.134 1.321-0.088 0.402 0.037 0.708 0.171 0.918 0.401v0c0.049 0.054 0.093 0.122 0.132 0.204 0.039 0.072 0.071 0.146 0.095 0.222v0c-0.173-0.022-0.439 0.006-0.799 0.084-0.36 0.078-0.746 0.196-1.158 0.355-0.411 0.15-0.801 0.318-1.17 0.503-0.365 0.19-0.654 0.381-0.865 0.574v0c-0.328 0.3-0.517 0.57-0.565 0.812-0.049 0.242 0.008 0.451 0.169 0.628v0c0.21 0.23 0.581 0.39 1.112 0.48 0.536 0.095 1.138 0.12 1.806 0.075v0c-0.032-0.537 0.079-1.074 0.334-1.612 0.255-0.547 0.596-1.015 1.022-1.404v0c0.363-0.331 0.759-0.576 1.189-0.735 0.43-0.168 0.85-0.22 1.26-0.154 0.41 0.066 0.772 0.27 1.085 0.613v0c0.407 0.446 0.56 0.854 0.459 1.225-0.097 0.376-0.327 0.729-0.69 1.061v0c-0.426 0.389-0.995 0.715-1.706 0.978-0.707 0.268-1.446 0.462-2.217 0.583v0c0.071 0.294 0.207 0.552 0.408 0.772v0c0.161 0.176 0.377 0.339 0.647 0.487 0.27 0.158 0.589 0.262 0.958 0.311 0.368 0.059 0.762 0.018 1.182-0.122v0l0.005 0.345c-0.706 0.25-1.351 0.272-1.933 0.067-0.573-0.204-1.025-0.488-1.355-0.85v0c-0.13-0.142-0.243-0.29-0.339-0.445-0.087-0.154-0.159-0.317-0.218-0.489v0c-0.835 0.079-1.615 0.046-2.34-0.099-0.731-0.141-1.286-0.42-1.667-0.837zM150.859 37.003v0c0.652-0.092 1.279-0.252 1.881-0.478 0.611-0.226 1.113-0.517 1.505-0.875v0c0.318-0.291 0.509-0.55 0.57-0.777 0.062-0.227 0.028-0.412-0.101-0.554v0c-0.197-0.216-0.559-0.293-1.088-0.233-0.524 0.056-1.028 0.305-1.513 0.748v0c-0.314 0.286-0.589 0.623-0.828 1.012-0.238 0.388-0.38 0.774-0.426 1.157z" fill="#ff0000" data-fill-palette-color="primary"></path><path d="M162.517 62.62v0c-0.161-0.429-0.073-0.798 0.264-1.109 0.333-0.302 0.776-0.557 1.329-0.764v0c0.279-0.105 0.585-0.205 0.918-0.301 0.339-0.099 0.674-0.186 1.007-0.261v0c-0.723-0.076-1.433-0.185-2.131-0.328-0.704-0.14-1.309-0.335-1.813-0.584-0.507-0.256-0.841-0.599-1.002-1.027v0c-0.17-0.453-0.102-0.904 0.205-1.352 0.307-0.448 0.743-0.778 1.308-0.99v0c0.404-0.151 0.894-0.261 1.471-0.329 0.577-0.068 1.157-0.097 1.741-0.089 0.588-0.001 1.085 0.04 1.49 0.121 0.415 0.085 0.65 0.203 0.706 0.351v0c0.026 0.068 0.04 0.229 0.043 0.484 0.009 0.252-0.048 0.401-0.172 0.447v0c-0.294-0.067-0.724-0.118-1.291-0.154-0.568-0.042-1.163-0.042-1.785 0-0.628 0.044-1.169 0.151-1.622 0.322v0c-0.112 0.042-0.277 0.121-0.495 0.238-0.22 0.111-0.401 0.253-0.541 0.427-0.141 0.173-0.17 0.368-0.089 0.585v0c0.121 0.323 0.451 0.589 0.99 0.798 0.539 0.209 1.18 0.379 1.924 0.511 0.744 0.132 1.486 0.24 2.225 0.324v0c0.613-0.102 1.064-0.165 1.353-0.189 0.295-0.026 0.496-0.009 0.604 0.051 0.105 0.053 0.18 0.141 0.227 0.265v0c0.068 0.18 0.085 0.34 0.052 0.48-0.033 0.14-0.127 0.239-0.282 0.297v0c-0.025 0.009-0.06 0.019-0.106 0.029-0.046 0.01-0.094 0.014-0.144 0.012v0c-0.364 0.03-0.815 0.093-1.353 0.188-0.542 0.104-1.094 0.229-1.655 0.376-0.561 0.147-1.078 0.309-1.55 0.486v0c-0.317 0.119-0.552 0.246-0.707 0.382-0.154 0.136-0.2 0.288-0.137 0.455v0c0.079 0.211 0.297 0.406 0.654 0.584 0.366 0.182 0.816 0.342 1.35 0.482 0.534 0.14 1.102 0.256 1.704 0.349 0.604 0.099 1.19 0.17 1.758 0.212v0c0.72-0.27 1.293-0.425 1.718-0.463 0.416-0.043 0.723-0.009 0.92 0.101 0.203 0.108 0.335 0.243 0.396 0.404v0c0.1 0.267 0.076 0.496-0.073 0.686-0.142 0.188-0.288 0.31-0.436 0.366v0c-0.099 0.037-0.21 0.054-0.332 0.05-0.116-0.006-0.248-0.02-0.398-0.042v0c-0.253-0.033-0.562-0.044-0.927-0.035-0.369 0.018-0.836 0.133-1.401 0.345v0c-0.224 0.084-0.453 0.191-0.687 0.321-0.232 0.137-0.406 0.305-0.523 0.504-0.114 0.206-0.118 0.451-0.011 0.737v0c0.109 0.292 0.33 0.531 0.663 0.719 0.33 0.181 0.828 0.299 1.493 0.354v0l-0.104 0.347c-0.804-0.046-1.393-0.211-1.769-0.495-0.373-0.278-0.622-0.582-0.745-0.911v0c-0.161-0.429-0.151-0.847 0.029-1.254 0.174-0.405 0.526-0.789 1.056-1.15v0c-0.762-0.104-1.522-0.262-2.281-0.473-0.757-0.205-1.413-0.462-1.968-0.771-0.551-0.318-0.907-0.691-1.068-1.119z" fill="#ff0000" data-fill-palette-color="primary"></path><path d="M10.481 116.599v0c-0.189-0.559-0.194-0.988-0.015-1.286 0.173-0.297 0.454-0.511 0.844-0.643v0c0.364-0.123 0.82-0.194 1.367-0.211 0.554-0.019 1.091-0.026 1.611-0.02v0c0.68 0.001 1.485 0.012 2.417 0.033 0.925 0.023 1.895 0.055 2.911 0.097 1.013 0.035 2.02 0.083 3.021 0.143 0.995 0.063 1.907 0.142 2.739 0.24v0c-0.306-0.863-0.569-1.579-0.791-2.149-0.223-0.576-0.434-1.086-0.633-1.529-0.201-0.45-0.446-0.935-0.733-1.454v0c0.434-0.105 0.838 0.003 1.213 0.325 0.375 0.321 0.726 0.801 1.054 1.439 0.33 0.645 0.641 1.397 0.932 2.258v0c0.291 0.861 0.518 1.645 0.681 2.354 0.161 0.702 0.311 1.365 0.453 1.99 0.139 0.618 0.305 1.231 0.496 1.838v0c-0.534-0.295-0.945-0.703-1.232-1.221-0.279-0.515-0.523-1.08-0.732-1.696v0c-0.045-0.132-0.089-0.274-0.134-0.428-0.045-0.153-0.093-0.305-0.144-0.455-0.051-0.151-0.102-0.302-0.153-0.452v0c-1.141-0.062-2.56-0.093-4.254-0.094-1.703-0.005-3.601 0.056-5.695 0.183v0c-0.719 0.047-1.367 0.088-1.944 0.122-0.57 0.032-1.089 0.082-1.556 0.149-0.467 0.067-0.905 0.17-1.314 0.308v0c-0.063 0.021-0.132 0.045-0.208 0.07-0.075 0.026-0.142 0.055-0.201 0.089z" fill="#ff0000" data-fill-palette-color="primary"></path><path d="M24.354 141.561v0c-0.278-0.347-0.345-0.752-0.2-1.218 0.145-0.465 0.422-0.862 0.831-1.19v0c0.3-0.241 0.686-0.47 1.158-0.688 0.467-0.213 0.95-0.401 1.448-0.563 0.499-0.163 0.93-0.266 1.294-0.312 0.373-0.044 0.605-0.009 0.697 0.104v0c0.042 0.052 0.084 0.162 0.126 0.333 0.043 0.17 0.051 0.333 0.024 0.491v0c-0.267 0.027-0.646 0.102-1.135 0.222-0.495 0.125-0.997 0.29-1.505 0.494-0.513 0.208-0.946 0.453-1.298 0.736v0c-0.083 0.066-0.201 0.179-0.355 0.336-0.149 0.154-0.257 0.326-0.325 0.517-0.068 0.191-0.036 0.369 0.097 0.534v0c0.158 0.197 0.421 0.317 0.789 0.362 0.364 0.04 0.788 0.039 1.274-0.002 0.491-0.045 1.002-0.119 1.532-0.222 0.525-0.098 1.027-0.199 1.505-0.303 0.474-0.109 0.868-0.195 1.182-0.26v0c0.04 0.07 0.091 0.177 0.156 0.322 0.065 0.144 0.11 0.286 0.137 0.425 0.027 0.14-0.003 0.245-0.091 0.316v0c-0.041 0.033-0.22 0.092-0.535 0.175-0.316 0.083-0.698 0.19-1.147 0.32-0.443 0.126-0.877 0.275-1.301 0.446-0.424 0.171-0.763 0.358-1.017 0.561v0c-0.186 0.15-0.305 0.309-0.356 0.478-0.051 0.169-0.002 0.347 0.147 0.533v0c0.174 0.217 0.485 0.402 0.93 0.554 0.442 0.147 0.977 0.232 1.607 0.253 0.635 0.017 1.311-0.062 2.029-0.238v0l0.023 0.314c-0.724 0.232-1.441 0.345-2.153 0.338-0.707-0.011-1.335-0.115-1.884-0.312-0.554-0.202-0.98-0.489-1.279-0.861v0c-0.212-0.264-0.33-0.517-0.356-0.761-0.025-0.243 0.023-0.469 0.145-0.678 0.122-0.208 0.286-0.396 0.493-0.562v0c0.119-0.096 0.251-0.185 0.397-0.268 0.146-0.083 0.299-0.163 0.458-0.24v0c-0.491 0.088-0.968 0.14-1.432 0.155-0.465 0.025-0.881-0.011-1.248-0.108-0.367-0.097-0.654-0.274-0.862-0.533z" fill="#ff0000" data-fill-palette-color="primary"></path><path d="M51.628 164.999v0c-0.404-0.23-0.647-0.506-0.731-0.828-0.084-0.322-0.034-0.645 0.15-0.967v0c0.135-0.236 0.32-0.463 0.558-0.679 0.237-0.216 0.477-0.442 0.719-0.679 0.238-0.231 0.433-0.479 0.583-0.744v0c0.184-0.323 0.244-0.583 0.18-0.779-0.064-0.197-0.191-0.349-0.38-0.457v0c-0.357-0.203-0.804-0.263-1.341-0.179-0.531 0.087-1.097 0.257-1.699 0.51-0.605 0.259-1.195 0.545-1.77 0.858-0.566 0.311-1.073 0.591-1.521 0.841v0c-0.184-0.105-0.342-0.237-0.473-0.395-0.131-0.159-0.207-0.328-0.227-0.507v0c0.033-0.058 0.195-0.202 0.487-0.433 0.288-0.225 0.638-0.511 1.049-0.857 0.411-0.346 0.809-0.711 1.195-1.094 0.389-0.389 0.691-0.771 0.904-1.146v0c0.115-0.041 0.268-0.061 0.458-0.06 0.196 0.005 0.374 0.053 0.536 0.145v0c0.311 0.177 0.383 0.413 0.216 0.707v0c-0.105 0.184-0.332 0.463-0.683 0.836-0.35 0.373-0.738 0.748-1.165 1.123v0c0.577-0.29 1.192-0.558 1.843-0.806 0.646-0.25 1.275-0.404 1.888-0.459 0.615-0.062 1.139 0.03 1.571 0.276v0c0.45 0.256 0.684 0.603 0.702 1.04 0.016 0.429-0.088 0.839-0.311 1.231v0c-0.203 0.357-0.445 0.655-0.726 0.892-0.289 0.24-0.575 0.467-0.856 0.681-0.282 0.214-0.503 0.462-0.664 0.744v0c-0.138 0.242-0.186 0.44-0.144 0.594 0.042 0.154 0.138 0.273 0.289 0.358v0c0.282 0.161 0.645 0.188 1.087 0.081 0.439-0.101 0.912-0.282 1.42-0.543 0.501-0.264 0.976-0.548 1.422-0.85v0l0.067 0.324c-0.564 0.427-1.117 0.776-1.66 1.047-0.546 0.262-1.07 0.418-1.572 0.468-0.502 0.05-0.969-0.048-1.401-0.294z" fill="#ff0000" data-fill-palette-color="primary"></path><path d="M77.31 174.74v0c-0.792-0.128-1.353-0.444-1.681-0.948-0.328-0.503-0.441-1.073-0.338-1.707v0c0.096-0.589 0.343-1.184 0.743-1.785 0.401-0.607 0.89-1.156 1.466-1.647 0.584-0.497 1.201-0.877 1.848-1.142 0.64-0.259 1.248-0.342 1.825-0.249v0c0.295 0.048 0.557 0.168 0.788 0.36 0.23 0.199 0.306 0.54 0.227 1.024v0c-0.081 0.498-0.303 0.939-0.668 1.324-0.366 0.391-0.812 0.718-1.338 0.982-0.532 0.256-1.097 0.447-1.696 0.572-0.605 0.124-1.193 0.166-1.764 0.127v0c-0.047 0.127-0.087 0.248-0.12 0.364-0.026 0.117-0.047 0.228-0.064 0.332v0c-0.032 0.196-0.043 0.393-0.035 0.589 0.014 0.204 0.067 0.397 0.158 0.58 0.091 0.183 0.231 0.336 0.42 0.461 0.188 0.125 0.433 0.211 0.734 0.26v0c0.557 0.09 1.136 0.019 1.738-0.212 0.595-0.233 1.171-0.57 1.726-1.01 0.556-0.447 1.049-0.956 1.477-1.525v0l0.197 0.214c-0.473 0.723-1.028 1.325-1.664 1.806-0.637 0.488-1.296 0.842-1.976 1.061-0.687 0.218-1.355 0.274-2.003 0.169zM76.881 171.294v0c0.373-0.061 0.8-0.169 1.282-0.326 0.475-0.152 0.944-0.351 1.408-0.599 0.463-0.247 0.86-0.539 1.19-0.875 0.322-0.331 0.518-0.706 0.585-1.125v0c0.023-0.144 0.015-0.26-0.024-0.347-0.033-0.086-0.135-0.143-0.305-0.17v0c-0.314-0.051-0.668 0.016-1.061 0.201-0.393 0.185-0.782 0.448-1.166 0.789-0.39 0.333-0.754 0.714-1.093 1.143-0.338 0.429-0.611 0.865-0.816 1.309z" fill="#ff0000" data-fill-palette-color="primary"></path><path d="M104.992 179.987v0c-0.13 0.025-0.288 0.012-0.474-0.039-0.186-0.052-0.361-0.187-0.525-0.405-0.172-0.223-0.305-0.576-0.399-1.057v0c-0.11-0.566-0.157-1.328-0.14-2.284 0.011-0.948 0.079-2.006 0.204-3.172 0.124-1.166 0.295-2.372 0.512-3.617 0.209-1.25 0.466-2.466 0.77-3.647 0.297-1.18 0.633-2.252 1.006-3.217 0.372-0.971 0.766-1.757 1.183-2.359 0.422-0.609 0.864-0.959 1.327-1.049v0c0.273-0.053 0.469-0.003 0.586 0.15 0.118 0.153 0.199 0.346 0.245 0.58v0c0.108 0.553 0.073 1.192-0.103 1.916-0.172 0.716-0.446 1.459-0.824 2.228-0.379 0.763-0.812 1.506-1.299 2.23-0.495 0.718-1.011 1.352-1.546 1.902v0c-0.035 0.169-0.066 0.341-0.092 0.515-0.027 0.174-0.057 0.349-0.091 0.524v0c0.148-0.002 0.277 0.051 0.386 0.159 0.109 0.107 0.184 0.231 0.224 0.371v0c0.205 0.568 0.404 1.07 0.597 1.506 0.188 0.443 0.414 0.774 0.68 0.993 0.266 0.219 0.6 0.289 1.004 0.21v0c0.449-0.087 0.798-0.328 1.046-0.72 0.248-0.393 0.495-0.928 0.742-1.605v0l0.331 0.139c-0.175 0.838-0.479 1.482-0.912 1.931-0.428 0.441-0.83 0.699-1.208 0.772v0c-0.234 0.046-0.49 0.035-0.766-0.033-0.275-0.061-0.54-0.169-0.793-0.322v0c0.158 0.814 0.228 1.638 0.208 2.473-0.019 0.842-0.107 1.619-0.266 2.333-0.157 0.72-0.369 1.315-0.636 1.786-0.274 0.466-0.6 0.735-0.977 0.808zM105.319 178.961v0c0.143-0.028 0.281-0.19 0.412-0.486 0.125-0.295 0.234-0.671 0.328-1.128 0.095-0.451 0.164-0.944 0.209-1.48 0.046-0.529 0.065-1.057 0.057-1.582-0.008-0.526-0.05-0.987-0.128-1.385v0c-0.079-0.404-0.202-0.761-0.371-1.073-0.169-0.312-0.414-0.67-0.736-1.073v0c-0.137 1.034-0.244 2.028-0.322 2.982-0.083 0.962-0.126 1.819-0.128 2.569-0.001 0.757 0.04 1.354 0.125 1.79v0c0.122 0.625 0.306 0.914 0.554 0.866zM105.672 167.286v0c0.689-0.938 1.264-1.858 1.724-2.759 0.465-0.908 0.808-1.701 1.027-2.379 0.212-0.683 0.292-1.155 0.241-1.415v0c-0.035-0.182-0.141-0.256-0.317-0.222v0c-0.339 0.066-0.669 0.417-0.991 1.054-0.316 0.636-0.62 1.452-0.912 2.448-0.293 0.996-0.55 2.087-0.772 3.273z" fill="#ff0000" data-fill-palette-color="primary"></path><path d="M132.929 165.65v0c-0.49 0.278-0.939 0.307-1.345 0.088-0.407-0.219-0.752-0.58-1.037-1.082v0c-0.314-0.554-0.582-1.268-0.802-2.141-0.221-0.874-0.403-1.827-0.546-2.859-0.134-1.03-0.225-2.057-0.272-3.083-0.057-1.028-0.068-1.982-0.034-2.863 0.031-0.887 0.104-1.618 0.22-2.195 0.118-0.585 0.275-0.934 0.471-1.045v0c0.127-0.072 0.272-0.059 0.435 0.04 0.163 0.098 0.324 0.236 0.485 0.411 0.161 0.176 0.285 0.342 0.373 0.498v0c0.177 0.312 0.329 0.763 0.458 1.353 0.126 0.585 0.222 1.266 0.29 2.043 0.064 0.772 0.084 1.58 0.059 2.425-0.033 0.842-0.114 1.681-0.243 2.517-0.126 0.826-0.325 1.591-0.598 2.295v0c0.107 0.351 0.223 0.682 0.346 0.993 0.126 0.317 0.265 0.609 0.416 0.874v0c0.252 0.444 0.503 0.74 0.754 0.888 0.251 0.147 0.504 0.149 0.758 0.005v0c0.312-0.177 0.539-0.489 0.682-0.936 0.149-0.45 0.241-0.96 0.277-1.529 0.032-0.575 0.018-1.139-0.044-1.691v0l0.338-0.009c0.097 1.234 0.035 2.287-0.187 3.16-0.213 0.876-0.631 1.49-1.254 1.843zM130.665 161.375v0c0.175-0.633 0.303-1.315 0.384-2.047 0.083-0.741 0.131-1.485 0.142-2.231 0.008-0.752-0.012-1.461-0.062-2.127-0.047-0.675-0.119-1.259-0.216-1.753-0.1-0.5-0.216-0.865-0.347-1.096v0c-0.065-0.115-0.122-0.182-0.171-0.2-0.048-0.018-0.084-0.021-0.107-0.008v0c-0.092 0.052-0.168 0.289-0.226 0.711-0.058 0.422-0.095 0.961-0.112 1.619-0.019 0.666-0.006 1.402 0.04 2.208 0.048 0.811 0.129 1.639 0.241 2.483 0.11 0.853 0.255 1.667 0.434 2.441z" fill="#ff0000" data-fill-palette-color="primary"></path><path d="M154.22 149.406v0c-0.375 0.421-0.774 0.603-1.194 0.547-0.421-0.056-0.818-0.249-1.189-0.58v0c-0.307-0.274-0.58-0.606-0.818-0.996-0.234-0.386-0.421-0.789-0.563-1.208-0.141-0.419-0.213-0.808-0.214-1.165 0.003-0.362 0.097-0.647 0.282-0.855v0c0.044-0.05 0.098-0.095 0.161-0.136 0.063-0.041 0.127-0.078 0.191-0.109v0c0 0.16 0.051 0.396 0.154 0.71 0.102 0.314 0.241 0.646 0.416 0.998 0.17 0.347 0.356 0.677 0.557 0.99 0.201 0.313 0.396 0.553 0.584 0.72v0c0.292 0.26 0.549 0.401 0.771 0.421 0.222 0.02 0.404-0.049 0.545-0.207v0c0.185-0.208 0.295-0.555 0.328-1.041 0.034-0.476 0.001-1.008-0.098-1.594v0c-0.475 0.074-0.967 0.022-1.475-0.155-0.499-0.178-0.941-0.439-1.327-0.784v0c-0.322-0.287-0.576-0.615-0.761-0.985-0.19-0.365-0.275-0.734-0.254-1.106 0.021-0.372 0.168-0.712 0.442-1.019v0c0.358-0.401 0.707-0.574 1.049-0.518 0.341 0.056 0.676 0.229 1.002 0.52v0c0.381 0.34 0.723 0.814 1.026 1.422 0.298 0.603 0.538 1.24 0.722 1.91v0c0.254-0.085 0.469-0.226 0.645-0.424v0c0.141-0.158 0.268-0.365 0.38-0.621 0.112-0.255 0.175-0.55 0.189-0.884 0.009-0.329-0.064-0.671-0.22-1.024v0l0.3-0.052c0.289 0.613 0.371 1.184 0.246 1.712-0.129 0.534-0.34 0.964-0.631 1.291v0c-0.115 0.129-0.235 0.239-0.362 0.331-0.131 0.097-0.269 0.177-0.416 0.242v0c0.14 0.73 0.183 1.425 0.127 2.086-0.061 0.666-0.259 1.187-0.595 1.563zM153.985 145.29v0c-0.141-0.57-0.341-1.113-0.601-1.629-0.255-0.521-0.559-0.938-0.91-1.252v0c-0.287-0.256-0.535-0.402-0.744-0.436-0.209-0.035-0.368 0.009-0.478 0.133v0c-0.177 0.198-0.214 0.529-0.113 0.993 0.102 0.464 0.368 0.888 0.799 1.272v0c0.287 0.256 0.614 0.472 0.981 0.648 0.362 0.172 0.717 0.262 1.066 0.271z" fill="#ff0000" data-fill-palette-color="primary"></path><path d="M172.169 120.585v0c-0.138 0.38-0.411 0.578-0.819 0.593-0.407 0.015-0.858-0.067-1.35-0.246v0c-0.249-0.09-0.516-0.201-0.8-0.333-0.284-0.131-0.563-0.268-0.836-0.409v0c0.449 0.473 0.872 0.962 1.268 1.465 0.39 0.501 0.685 0.982 0.885 1.443 0.198 0.467 0.226 0.893 0.086 1.28v0c-0.147 0.405-0.455 0.671-0.924 0.798-0.469 0.126-0.956 0.098-1.461-0.086v0c-0.362-0.131-0.758-0.342-1.189-0.632-0.425-0.288-0.836-0.603-1.235-0.945-0.398-0.342-0.711-0.656-0.938-0.943-0.232-0.296-0.322-0.512-0.273-0.649v0c0.023-0.062 0.104-0.181 0.245-0.356 0.141-0.175 0.268-0.242 0.38-0.201v0c0.162 0.214 0.422 0.499 0.78 0.854 0.364 0.358 0.769 0.702 1.214 1.033 0.451 0.333 0.882 0.574 1.293 0.723v0c0.1 0.036 0.257 0.079 0.472 0.129 0.209 0.047 0.411 0.054 0.607 0.019 0.196-0.035 0.33-0.152 0.403-0.352v0c0.104-0.287 0.034-0.658-0.21-1.113-0.24-0.447-0.576-0.932-1.008-1.456-0.425-0.521-0.866-1.027-1.323-1.516v0c-0.475-0.285-0.817-0.501-1.025-0.647-0.212-0.154-0.339-0.282-0.38-0.382-0.041-0.1-0.042-0.206-0.001-0.317v0c0.059-0.162 0.141-0.281 0.245-0.356 0.105-0.075 0.226-0.087 0.363-0.038v0c0.025 0.009 0.055 0.023 0.09 0.043 0.035 0.02 0.069 0.043 0.102 0.069v0c0.261 0.194 0.605 0.413 1.031 0.66 0.426 0.246 0.87 0.481 1.332 0.705 0.468 0.226 0.911 0.415 1.329 0.566v0c0.287 0.104 0.523 0.154 0.708 0.151 0.185-0.004 0.304-0.08 0.358-0.23v0c0.068-0.187 0.032-0.447-0.109-0.78-0.143-0.327-0.352-0.692-0.629-1.096-0.283-0.406-0.603-0.818-0.959-1.237-0.35-0.416-0.708-0.8-1.075-1.152v0c-0.642-0.233-1.118-0.458-1.427-0.676-0.309-0.218-0.5-0.421-0.573-0.609-0.073-0.189-0.082-0.358-0.028-0.508v0c0.086-0.237 0.232-0.378 0.44-0.423 0.207-0.045 0.379-0.043 0.516 0.007v0c0.087 0.032 0.171 0.083 0.25 0.155 0.08 0.071 0.165 0.159 0.255 0.261v0c0.145 0.165 0.345 0.351 0.602 0.557 0.257 0.206 0.641 0.402 1.153 0.587v0c0.193 0.07 0.409 0.127 0.647 0.172 0.238 0.044 0.455 0.031 0.649-0.04 0.195-0.07 0.339-0.234 0.432-0.489v0c0.095-0.262 0.084-0.552-0.034-0.87-0.118-0.318-0.386-0.687-0.806-1.107v0l0.266-0.179c0.524 0.5 0.832 0.954 0.925 1.362 0.092 0.407 0.085 0.758-0.021 1.051v0c-0.14 0.387-0.39 0.667-0.749 0.84-0.359 0.173-0.823 0.227-1.392 0.162v0c0.463 0.514 0.893 1.061 1.288 1.642 0.39 0.579 0.683 1.133 0.879 1.662 0.194 0.536 0.221 0.997 0.081 1.384z" fill="#ff0000" data-fill-palette-color="primary"></path><path d="M10.124 90.344c0-1.011 0.82-1.831 1.832-1.832 1.011 0 1.831 0.82 1.831 1.832 0 1.011-0.82 1.831-1.831 1.831-1.011 0-1.831-0.82-1.832-1.831z" fill="#ff0000" data-fill-palette-color="primary"></path><path d="M171.317 90.344c0-1.011 0.82-1.831 1.831-1.832 1.011 0 1.831 0.82 1.832 1.832 0 1.011-0.82 1.831-1.832 1.831-1.011 0-1.831-0.82-1.831-1.831z" fill="#ff0000" data-fill-palette-color="primary"></path></g></svg></g></svg></g></svg></g><g></g></svg></g></svg></g></svg></g><defs></defs></svg><rect width="448" height="360" fill="none" stroke="none" visibility="hidden"></rect></g></svg></g></svg>